<?xml version="1.0" encoding="UTF-8" standalone="no"?>
<!-- Created with Inkscape (http://www.inkscape.org/) -->

<svg
   width="23.524494mm"
   height="17.321476mm"
   viewBox="0 0 23.524494 17.321476"
   version="1.1"
   id="svg316"
   xml:space="preserve"
   xmlns="http://www.w3.org/2000/svg"
   xmlns:svg="http://www.w3.org/2000/svg"><defs
     id="defs313" /><g
     id="layer1"
     transform="translate(32.61868,-62.27894)"><g
       id="g360"
       transform="matrix(0.26458333,0,0,0.26458333,-0.96907479,66.810585)"><g
         id="g343"
         transform="translate(-120.81855,-29.655463)"><path
           d="m 83.998,31.897 h -6.929 c -1.246,0 -2.255,1.009 -2.255,2.255 v 5.053 h -3.878 v -6.978 c 0,-1.246 -1.009,-2.255 -2.255,-2.255 H 58.635 v -4.821 c 0,-1.244 -1.009,-2.255 -2.255,-2.255 H 46.011 v -5.858 h 8.534 c 1.246,0 2.255,-1.012 2.255,-2.255 0,-1.246 -1.009,-2.255 -2.255,-2.255 H 23.902 c -1.246,0 -2.255,1.009 -2.255,2.255 0,1.244 1.01,2.255 2.255,2.255 h 8.876 v 5.858 h -8.876 c -1.246,0 -2.255,1.011 -2.255,2.255 v 4.821 h -8.194 c -1.246,0 -2.255,1.009 -2.255,2.255 V 46.495 H 5.708 V 32.242 c 0,-1.246 -1.01,-2.255 -2.255,-2.255 -1.246,0 -2.255,1.009 -2.255,2.255 v 33.467 c 0,1.246 1.009,2.255 2.255,2.255 1.246,0 2.255,-1.009 2.255,-2.255 V 51.006 h 5.489 v 14.703 c 0,1.246 1.009,2.255 2.255,2.255 h 21.08 l 7.541,9.205 c 0.428,0.524 1.068,0.826 1.745,0.826 H 68.68 c 1.246,0 2.255,-1.009 2.255,-2.255 v -10.9 h 3.878 v 5.799 c 0,1.244 1.009,2.255 2.255,2.255 h 6.929 c 0.934,0 1.772,-0.577 2.106,-1.45 8.936,-23.318 0.188,-37.871 -0.189,-38.481 -0.41,-0.662 -1.136,-1.066 -1.916,-1.066 z M 37.29,17.038 h 4.21 v 5.858 h -4.21 z m 45.137,51.346 h -3.104 v -5.799 c 0,-1.246 -1.009,-2.255 -2.255,-2.255 H 68.68 c -1.246,0 -2.255,1.009 -2.255,2.255 V 73.484 H 44.885 L 37.344,64.279 C 36.916,63.757 36.276,63.453 35.598,63.453 H 15.708 V 34.482 h 8.195 c 1.246,0 2.255,-1.009 2.255,-2.255 v -4.821 h 27.967 v 4.821 c 0,1.246 1.009,2.255 2.255,2.255 h 10.045 v 6.978 c 0,1.246 1.009,2.255 2.255,2.255 h 6.134 v 7.894 c 0,1.246 1.009,2.255 2.255,2.255 1.246,0 2.255,-1.01 2.255,-2.255 V 41.46 36.407 h 3.31 c 1.616,3.434 5.842,14.962 -0.207,31.977 z"
           id="path339" /><path
           d="m 47.464,44.55 h -7.532 l 5.218,-9.103 c 0.62,-1.081 0.247,-2.459 -0.834,-3.079 -1.083,-0.622 -2.459,-0.245 -3.079,0.836 l -7.153,12.479 c -0.4,0.699 -0.398,1.558 0.006,2.253 0.404,0.695 1.146,1.124 1.952,1.124 h 7.355 l -5.302,8.494 c -0.661,1.056 -0.338,2.447 0.718,3.105 0.371,0.233 0.785,0.343 1.193,0.343 0.752,0 1.487,-0.375 1.915,-1.061 L 49.377,48 c 0.434,-0.695 0.457,-1.57 0.059,-2.288 -0.397,-0.715 -1.152,-1.162 -1.972,-1.162 z"
           id="path341" /></g></g></g></svg>
